<!DOCTYPE svg PUBLIC "-//W3C//DTD SVG 1.1//EN" "http://www.w3.org/Graphics/SVG/1.1/DTD/svg11.dtd">
<!-- Uploaded to: SVG Repo, www.svgrepo.com, Transformed by: SVG Repo Mixer Tools -->
<svg width="800px" height="800px" viewBox="0 -0.5 21 21" version="1.1" xmlns="http://www.w3.org/2000/svg" xmlns:xlink="http://www.w3.org/1999/xlink" fill="#000000" data--h-bstatus="0OBSERVED">
<g id="SVGRepo_bgCarrier" stroke-width="0" data--h-bstatus="0OBSERVED"/>
<g id="SVGRepo_tracerCarrier" stroke-linecap="round" stroke-linejoin="round" data--h-bstatus="0OBSERVED"/>
<g id="SVGRepo_iconCarrier" data--h-bstatus="0OBSERVED"> <title data--h-bstatus="0OBSERVED">delete [#1487]</title> <desc data--h-bstatus="0OBSERVED">Created with Sketch.</desc> <defs data--h-bstatus="0OBSERVED"> </defs> <g id="Page-1" stroke="none" stroke-width="1" fill="none" fill-rule="evenodd" data--h-bstatus="0OBSERVED"> <g id="Dribbble-Light-Preview" transform="translate(-179.000000, -360.000000)" fill="#000000" data--h-bstatus="0OBSERVED"> <g id="icons" transform="translate(56.000000, 160.000000)" data--h-bstatus="0OBSERVED"> <path d="M130.35,216 L132.45,216 L132.45,208 L130.35,208 L130.35,216 Z M134.55,216 L136.65,216 L136.65,208 L134.55,208 L134.55,216 Z M128.25,218 L138.75,218 L138.75,206 L128.25,206 L128.25,218 Z M130.35,204 L136.65,204 L136.65,202 L130.35,202 L130.35,204 Z M138.75,204 L138.75,200 L128.25,200 L128.25,204 L123,204 L123,206 L126.15,206 L126.15,220 L140.85,220 L140.85,206 L144,206 L144,204 L138.75,204 Z" id="delete-[#1487]" data--h-bstatus="0OBSERVED"> </path> </g> </g> </g> </g>
</svg>